<?xml version="1.0" encoding="UTF-8" standalone="no"?><!DOCTYPE svg PUBLIC "-//W3C//DTD SVG 1.1//EN" "http://www.w3.org/Graphics/SVG/1.1/DTD/svg11.dtd"><svg width="100%" height="100%" viewBox="0 0 578 629" version="1.1" xmlns="http://www.w3.org/2000/svg" xmlns:xlink="http://www.w3.org/1999/xlink" xml:space="preserve" xmlns:serif="http://www.serif.com/" style="fill-rule:evenodd;clip-rule:evenodd;stroke-linecap:round;stroke-linejoin:round;stroke-miterlimit:1.5;"><path d="M29.38,274.675c102.811,-35.071 373.562,-14.093 317.224,154.54c-48.94,146.487 -201.996,84.436 -201.906,23.489c0.147,-98.663 125.235,-53.865 125.235,-53.865c0,0 -5.935,-76.841 -106.067,-69.534c-97.19,7.092 -108.105,101.631 -105.801,128.469c16.965,197.602 299.143,165.777 391.982,79.534c85.577,-79.498 153.88,-224.408 54.825,-344.055c-81.092,-97.949 -205.692,-75.904 -205.692,-75.904c0,0 16.326,-53.194 56.901,-83.855c-68.567,-15.097 -150.94,-15.33 -214.006,16.322c-83.936,42.127 -136.61,140.369 -112.695,224.859Zm162.814,-142.065c-26.067,0 -35.06,21.011 -34.219,39.26c0.88,19.116 19.719,31.904 35.536,30.75c33.095,-2.415 37.55,-28.965 30.841,-49.908c-3.926,-12.257 -16.895,-20.51 -32.158,-20.102Z" style="fill:#ffe16d;stroke:#1a1818;stroke-width:47.19px;"/></svg>